<?xml version="1.0" standalone="no"?>
<svg xmlns="http://www.w3.org/2000/svg" width="24" height="24"><rect width="24" height="24" opacity="0"></rect><g><path d="M12.74 16.66L12.74 5.95Q12.74 5.64 12.53 5.42Q12.31 5.21 12 5.21Q11.69 5.21 11.47 5.42Q11.26 5.64 11.26 5.95L11.26 16.68L7.27 12.7Q7.06 12.48 6.74 12.48Q6.43 12.48 6.22 12.7Q6 12.91 6 13.22Q6 13.54 6.22 13.75L10.73 18.26Q11.26 18.79 11.99 18.79Q12.72 18.79 13.27 18.26L17.76 13.75Q17.98 13.54 17.98 13.22Q17.98 12.91 17.76 12.7Q17.57 12.48 17.24 12.48Q16.92 12.48 16.7 12.7Z" fill="rgba(0,0,0,0.9019607843137255)"></path><path d="M12 1.01Q9.02 1.01 6.49 2.48Q3.96 3.96 2.48 6.49Q1.01 9.02 1.01 12Q1.01 14.98 2.48 17.51Q3.96 20.04 6.49 21.52Q9.02 22.99 12 22.99Q14.98 22.99 17.5 21.52Q20.02 20.04 21.5 17.51Q22.99 14.98 22.99 12Q22.99 9.02 21.5 6.49Q20.02 3.96 17.5 2.48Q14.98 1.01 12 1.01ZM12 21.5Q9.43 21.5 7.25 20.22Q5.06 18.94 3.78 16.75Q2.5 14.57 2.5 12Q2.5 9.41 3.78 7.22Q5.06 5.04 7.25 3.77Q9.43 2.5 12 2.5Q14.57 2.5 16.75 3.77Q18.94 5.04 20.22 7.22Q21.5 9.41 21.5 12Q21.5 14.57 20.22 16.75Q18.94 18.94 16.75 20.22Q14.57 21.5 12 21.5Z" fill="rgba(0,0,0,0.9019607843137255)"></path></g></svg>