<?xml version="1.0" standalone="no"?>
<svg xmlns="http://www.w3.org/2000/svg" width="24" height="24">
  <rect width="24" height="24" opacity="0"/>
  <g>
    <path d="M13.5 5.5Q13.5 4.84 13.08 4.42Q12.66 4 12 4Q11.34 4 10.92 4.42Q10.5 4.84 10.5 5.5Q10.5 6.16 10.92 6.58Q11.34 7 12 7Q12.66 7 13.08 6.58Q13.5 6.16 13.5 5.5Z" fill="rgba(0,0,0,0.9019607843137255)"/>
    <path d="M13.5 12Q13.5 11.34 13.08 10.92Q12.66 10.5 12 10.5Q11.34 10.5 10.92 10.92Q10.5 11.34 10.5 12Q10.5 12.66 10.92 13.08Q11.34 13.5 12 13.5Q12.66 13.5 13.08 13.08Q13.5 12.66 13.5 12Z" fill="rgba(0,0,0,0.9019607843137255)"/>
    <path d="M13.5 18.5Q13.5 17.84 13.08 17.42Q12.66 17 12 17Q11.34 17 10.92 17.42Q10.5 17.84 10.5 18.5Q10.5 19.16 10.92 19.58Q11.34 20 12 20Q12.66 20 13.08 19.58Q13.5 19.16 13.5 18.5Z" fill="rgba(0,0,0,0.9019607843137255)"/>
  </g>
</svg>
