<?xml version="1.0" standalone="no"?>
<svg xmlns="http://www.w3.org/2000/svg" width="24" height="24"><rect width="24" height="24" opacity="0"></rect><g><path d="M2.06 5.59L4.78 5.59L4.78 2.9L2.06 2.9ZM2.06 13.34L4.78 13.34L4.78 10.66L2.06 10.66ZM2.06 21.1L4.78 21.1L4.78 18.41L2.06 18.41Z" fill="rgba(0,0,0,0.9019607843137255)"></path><path d="M21.19 4.99Q21.5 4.99 21.72 4.78Q21.94 4.56 21.94 4.25Q21.94 3.94 21.72 3.72Q21.5 3.5 21.19 3.5L7.68 3.5Q7.37 3.5 7.14 3.72Q6.91 3.94 6.91 4.25Q6.91 4.56 7.14 4.78Q7.37 4.99 7.68 4.99L21.19 4.99ZM21.19 12.74Q21.5 12.74 21.72 12.53Q21.94 12.31 21.94 12Q21.94 11.69 21.72 11.47Q21.5 11.26 21.19 11.26L7.68 11.26Q7.37 11.26 7.14 11.47Q6.91 11.69 6.91 12Q6.91 12.31 7.14 12.53Q7.37 12.74 7.68 12.74L21.19 12.74ZM21.19 20.5Q21.5 20.5 21.72 20.28Q21.94 20.06 21.94 19.75Q21.94 19.44 21.72 19.22Q21.5 19.01 21.19 19.01L7.68 19.01Q7.37 19.01 7.14 19.22Q6.91 19.44 6.91 19.75Q6.91 20.06 7.14 20.28Q7.37 20.5 7.68 20.5L21.19 20.5Z" fill="rgba(0,0,0,0.9019607843137255)"></path></g></svg>