<?xml version="1.0" standalone="no"?>
<svg xmlns="http://www.w3.org/2000/svg" width="24" height="24"><rect width="24" height="24" opacity="0"></rect><g><path d="M11.76 5.06Q12.07 5.06 12.3 4.85Q12.53 4.63 12.53 4.32Q12.53 4.01 12.3 3.79Q12.07 3.58 11.76 3.58L3.29 3.58Q2.98 3.58 2.75 3.79Q2.52 4.01 2.52 4.32Q2.52 4.63 2.75 4.85Q2.98 5.06 3.29 5.06L11.76 5.06ZM12.53 10.32Q12.53 10.01 12.3 9.79Q12.07 9.58 11.76 9.58L3.29 9.58Q2.98 9.58 2.75 9.79Q2.52 10.01 2.52 10.32Q2.52 10.63 2.75 10.85Q2.98 11.06 3.29 11.06L11.76 11.06Q12.07 11.06 12.3 10.85Q12.53 10.63 12.53 10.32ZM3.29 15.58Q2.98 15.58 2.75 15.79Q2.52 16.01 2.52 16.32Q2.52 16.63 2.75 16.85Q2.98 17.06 3.29 17.06L7.75 17.06Q8.06 17.06 8.28 16.85Q8.5 16.63 8.5 16.32Q8.5 16.01 8.28 15.79Q8.06 15.58 7.75 15.58L3.29 15.58Z" fill="rgba(0,0,0,0.9019607843137255)"></path><path d="M18.36 3.89Q17.86 3.94 17.53 4.31Q17.21 4.68 17.21 5.21L17.23 6.91L17.23 13.13Q17.23 13.44 17.11 13.67Q16.99 13.9 16.75 14.09Q16.42 14.35 15.41 14.74L15.34 14.76Q14.14 15.24 13.38 15.74Q12.62 16.25 12.26 17.16Q12.05 17.76 12.13 18.36Q12.22 18.96 12.6 19.44Q13.1 20.06 13.94 20.3Q14.78 20.54 15.53 20.45Q17.35 20.23 18.04 19.01Q18.72 17.78 18.72 16.37L18.72 6.94Q18.77 6.53 18.92 6.38Q19.08 6.24 19.46 6.12Q20.09 5.88 20.38 5.69Q21.05 5.28 21.3 4.73Q21.55 4.18 21.41 3.5L18.36 3.89ZM15.36 18.98Q14.83 19.03 14.41 18.91Q13.99 18.79 13.78 18.53Q13.66 18.34 13.62 18.13Q13.58 17.93 13.68 17.69Q13.87 17.18 14.41 16.86Q14.95 16.54 15.89 16.15L15.96 16.13L16.1 16.06Q16.42 15.94 16.72 15.8Q17.02 15.67 17.21 15.55L17.21 16.63Q17.21 17.4 16.85 18.13Q16.49 18.86 15.36 18.98Z" fill="rgba(0,0,0,0.9019607843137255)"></path></g></svg>