<?xml version="1.0" standalone="no"?>
<svg xmlns="http://www.w3.org/2000/svg" width="24" height="24"><rect width="24" height="24" opacity="0"></rect><g><path d="M6 15.1Q5.95 15.38 6.06 15.62Q6.17 15.86 6.41 15.96Q7.03 16.2 7.34 15.74Q8.9 13.63 11.04 12.1Q13.18 10.56 15.62 10.56L16.03 10.56L16.03 12.72Q16.03 13.03 16.25 13.25Q16.46 13.46 16.75 13.49Q17.04 13.51 17.28 13.3L22.66 8.64Q22.92 8.4 22.92 8.06Q22.92 7.73 22.66 7.49L17.28 2.83Q17.04 2.62 16.75 2.64Q16.46 2.66 16.25 2.88Q16.03 3.1 16.03 3.41L16.03 5.69Q13.63 5.98 11.6 7.25Q9.58 8.52 8.14 10.56Q6.7 12.6 6 15.1ZM16.82 7.13Q17.14 7.13 17.34 6.91Q17.54 6.7 17.54 6.38L17.54 5.04L21 8.06L17.54 11.09L17.54 9.91Q17.54 9.43 17.18 9.24Q16.82 9.05 16.2 9.05Q14.69 9.02 13.52 9.34Q12.36 9.65 11.5 10.14Q10.63 10.63 9.46 11.5L9.36 11.57Q10.8 9.58 12.66 8.42Q14.52 7.27 16.82 7.13Z" fill="rgba(0,0,0,0.9019607843137255)"></path><path d="M22.2 11.83Q21.89 11.83 21.67 12.05Q21.46 12.26 21.46 12.58L21.46 18.19Q21.46 18.86 20.96 19.34Q20.47 19.82 19.8 19.82L4.2 19.82Q3.53 19.82 3.04 19.34Q2.54 18.86 2.54 18.19L2.54 6.5Q2.54 5.81 3.04 5.33Q3.53 4.85 4.2 4.85L12.82 4.85Q13.13 4.85 13.34 4.63Q13.56 4.42 13.56 4.1Q13.56 3.79 13.34 3.58Q13.13 3.36 12.82 3.36L4.2 3.36Q3.34 3.36 2.6 3.78Q1.87 4.2 1.45 4.92Q1.03 5.64 1.03 6.5L1.03 18.19Q1.03 19.03 1.45 19.76Q1.87 20.5 2.6 20.92Q3.34 21.34 4.2 21.34L19.8 21.34Q20.66 21.34 21.4 20.92Q22.13 20.5 22.55 19.76Q22.97 19.03 22.97 18.19L22.97 12.58Q22.97 12.26 22.74 12.05Q22.51 11.83 22.2 11.83Z" fill="rgba(0,0,0,0.9019607843137255)"></path></g></svg>