<?xml version="1.0" standalone="no"?>
<svg xmlns="http://www.w3.org/2000/svg" width="24" height="24"><rect width="24" height="24" opacity="0"></rect><g><path d="M21.26 5.02Q21.58 5.02 21.79 4.8Q22.01 4.58 22.01 4.27Q22.01 3.96 21.79 3.73Q21.58 3.5 21.26 3.5L2.74 3.5Q2.42 3.5 2.21 3.73Q1.99 3.96 1.99 4.27Q1.99 4.58 2.21 4.8Q2.42 5.02 2.74 5.02L21.26 5.02ZM14.83 12.74Q15.14 12.74 15.36 12.53Q15.58 12.31 15.58 12Q15.58 11.69 15.36 11.47Q15.14 11.26 14.83 11.26L2.74 11.26Q2.42 11.26 2.21 11.47Q1.99 11.69 1.99 12Q1.99 12.31 2.21 12.53Q2.42 12.74 2.74 12.74L14.83 12.74ZM9.38 20.47Q9.67 20.47 9.9 20.26Q10.13 20.04 10.13 19.73Q10.13 19.42 9.9 19.2Q9.67 18.98 9.38 18.98L2.74 18.98Q2.42 18.98 2.21 19.2Q1.99 19.42 1.99 19.73Q1.99 20.04 2.21 20.26Q2.42 20.47 2.74 20.47L9.38 20.47Z" fill="rgba(0,0,0,0.9019607843137255)"></path></g></svg>